<?xml version="1.0" encoding="utf-8"?>
<!-- Generator: Adobe Illustrator 27.0.0, SVG Export Plug-In . SVG Version: 6.00 Build 0)  -->
<svg version="1.1" id="Layer_1" xmlns="http://www.w3.org/2000/svg" xmlns:xlink="http://www.w3.org/1999/xlink" x="0px" y="0px"
	 viewBox="0 0 299.9 109.5" style="enable-background:new 0 0 299.9 109.5;" xml:space="preserve">
<style type="text/css">
	.st0{fill:#F7B334;}
</style>
<g>
	<path class="st0" d="M137.6,42.4c-3,0-5.4,0.7-7.1,2.1c-1.7,1.4-3,3.2-3.7,5.3h-0.4v-6.6h-9.5v39.4h9.5v-26c0-1.1,0.2-2,0.7-2.8
		c0.4-0.8,1-1.4,1.7-2c0.7-0.5,1.5-0.9,2.4-1.2c0.9-0.3,1.9-0.4,2.9-0.4c2.3,0,3.9,0.7,4.9,2.1c1,1.4,1.5,3.5,1.5,6.3v23.9h9.5V57.8
		c0-4.9-1.1-8.7-3.2-11.4C144.6,43.7,141.6,42.4,137.6,42.4z"/>
	<polygon class="st0" points="194,43.3 183.2,43.3 174.5,53.4 168.1,60.5 167.7,60.5 167.7,26.9 158.3,26.9 158.3,82.7 167.7,82.7 
		167.7,70.7 174.2,65 184.1,82.7 195.4,82.7 180.6,58.5 	"/>
	<path class="st0" d="M27.9,26.9l14.3,24.6c1.2,2,3.4,3.3,5.8,3.3h7.8L39.6,26.9H27.9z"/>
	<path class="st0" d="M72,26.9L55.8,54.8L39.6,82.7h7.8c2.4,0,4.6-1.3,5.8-3.3l30.5-52.5H72z"/>
	<path class="st0" d="M105.4,48.3c-1.4-1.8-3.3-3.2-5.5-4.3c-2.2-1.1-4.8-1.6-7.9-1.6c-2.8,0-5.3,0.5-7.6,1.5
		c-2.2,1-4.1,2.4-5.6,4.1c-1.5,1.8-2.7,3.9-3.5,6.4c-0.8,2.5-1.2,5.3-1.2,8.4c0,3.2,0.4,6,1.3,8.6c0.8,2.5,2,4.7,3.6,6.5
		c1.6,1.8,3.5,3.2,5.7,4.1c2.2,1,4.8,1.5,7.7,1.5c3.6,0,6.8-0.6,9.5-1.9c2.7-1.3,4.9-3.1,6.5-5.3l-5.9-4.9c-1,1.1-2.1,2.1-3.3,2.9
		c-1.5,1-3.4,1.5-5.8,1.5c-3.1,0-5.5-0.9-7-2.6c-1.6-1.7-2.4-4-2.4-6.8v-1h25.7v-3.2c0-2.7-0.4-5.3-1.1-7.7
		C107.9,52.2,106.8,50.1,105.4,48.3z M99.8,59.4H84v-0.6c0-2.7,0.7-4.9,2.2-6.6c1.5-1.7,3.5-2.6,6-2.6c2.5,0,4.4,0.8,5.7,2.5
		c1.3,1.7,2,3.9,2,6.6V59.4z"/>
	<path class="st0" d="M227,48.3c-1.4-1.8-3.3-3.2-5.5-4.3c-2.2-1.1-4.8-1.6-7.9-1.6c-2.8,0-5.3,0.5-7.6,1.5c-2.2,1-4.1,2.4-5.6,4.1
		c-1.5,1.8-2.7,3.9-3.5,6.4c-0.8,2.5-1.2,5.3-1.2,8.4c0,3.2,0.4,6,1.3,8.6c0.8,2.5,2,4.7,3.6,6.5c1.6,1.8,3.5,3.2,5.7,4.1
		c2.2,1,4.8,1.5,7.7,1.5c3.6,0,6.8-0.6,9.5-1.9c2.7-1.3,4.9-3.1,6.5-5.3l-5.9-4.9c-1,1.1-2.1,2.1-3.3,2.9c-1.5,1-3.4,1.5-5.8,1.5
		c-3.1,0-5.5-0.9-7-2.6c-1.6-1.7-2.4-4-2.4-6.8v-1h25.7v-3.2c0-2.7-0.4-5.3-1.1-7.7C229.5,52.2,228.5,50.1,227,48.3z M221.5,59.4
		h-15.9v-0.6c0-2.7,0.7-4.9,2.2-6.6c1.5-1.7,3.5-2.6,6-2.6c2.5,0,4.4,0.8,5.7,2.5c1.3,1.7,2,3.9,2,6.6V59.4z"/>
	<path class="st0" d="M272,65.4v-3.2c0-2.7-0.4-5.3-1.1-7.7c-0.7-2.4-1.8-4.5-3.2-6.3c-1.4-1.8-3.3-3.2-5.5-4.3
		c-2.2-1.1-4.8-1.6-7.9-1.6c-2.8,0-5.3,0.5-7.6,1.5c-2.2,1-4.1,2.4-5.6,4.1c-1.5,1.8-2.7,3.9-3.5,6.4c-0.8,2.5-1.2,5.3-1.2,8.4
		c0,3.2,0.4,6,1.3,8.6c0.8,2.5,2,4.7,3.6,6.5c1.6,1.8,3.5,3.2,5.7,4.1c2.2,1,4.8,1.5,7.7,1.5c3.6,0,6.8-0.6,9.5-1.9
		c2.7-1.3,4.9-3.1,6.5-5.3l-5.9-4.9c-1,1.1-2.1,2.1-3.3,2.9c-1.5,1-3.4,1.5-5.8,1.5c-3.1,0-5.5-0.9-7-2.6c-1.6-1.7-2.4-4-2.4-6.8v-1
		H272z M246.3,58.8c0-2.7,0.7-4.9,2.2-6.6c1.5-1.7,3.5-2.6,6-2.6c2.5,0,4.4,0.8,5.7,2.5c1.3,1.7,2,3.9,2,6.6v0.7h-15.9V58.8z"/>
</g>
</svg>
