<?xml version="1.0" encoding="UTF-8"?>
<svg width="284.75" height="61.502" version="1.1" viewBox="0 0 284.75 61.502" xml:space="preserve" xmlns="http://www.w3.org/2000/svg" xmlns:cc="http://creativecommons.org/ns#" xmlns:dc="http://purl.org/dc/elements/1.1/" xmlns:rdf="http://www.w3.org/1999/02/22-rdf-syntax-ns#"><metadata><rdf:RDF><cc:Work rdf:about=""><dc:format>image/svg+xml</dc:format><dc:type rdf:resource="http://purl.org/dc/dcmitype/StillImage"/><dc:title/></cc:Work></rdf:RDF></metadata>
<g transform="translate(-6.625 -.249)" fill="#0085ca">
	<path d="m221.77 58.94h-8.156s4.038-4.829 4.038-9.577c0-7.531-4.672-11.378-7.127-11.787-0.871-0.163-2.138-0.245-3.167-0.245v3.438c0.396-0.082 0.713-0.164 1.03-0.164 3.405 0 4.118 6.14 3.563 9.578-0.475 3.029-1.979 6.876-4.593 7.695v3.765h20.034v-24.313h-5.622zm-14.412-21.61h-1.9-28.348c-0.634 0-3.959-0.164-5.226 3.11-0.871 2.374-0.396 5.157 1.504 6.549 1.03 0.737 13.303 9.25 13.303 9.25s1.742 0.982 1.584 1.883c-0.079 0.818-1.188 0.655-1.188 0.655h-17.104s-1.505 0.163-1.9-0.246c-0.396-0.491-0.238-2.455-0.238-2.455v-18.419h-5.859v1.719s-1.98-1.719-4.276-1.719v5.239c0.792-0.409 1.663-0.491 2.534-0.082 3.009 1.309 2.217 5.402 0.871 8.513-0.792 1.965-1.98 3.848-3.405 4.748v5.075c0.871-0.328 1.821-0.9 2.93-1.965 1.663-1.556 1.979-2.374 1.979-2.374s-0.317 2.046 0.475 3.274c1.029 1.555 2.296 1.555 2.296 1.555h24.548c1.9 0 5.78-0.491 5.622-5.157-0.079-3.274-3.484-5.566-3.484-5.566l-11.323-8.35s-1.029-0.573-0.95-1.637 1.505-0.9 1.505-0.9h20.034s-4.117 3.193-4.117 10.723c0 6.712 5.068 10.887 8.948 10.887h1.188v-3.765c-0.317 0.163-0.713 0.245-1.108 0.245-3.326-0.082-3.959-5.73-3.485-8.84 0.396-2.865 2.059-7.449 4.593-8.513v-3.437zm-49.649 0.327c-2.613 0-5.86 1.392-7.998 4.338-2.376 3.274-2.771 4.83-3.088 7.122-0.158 1.555-0.158 4.338 0.634 6.63 0.396 1.473 1.505 3.029 1.505 3.029h-12.828s-1.505 0-2.93-0.655v3.52h22.488s0.871 0.082 2.217-0.491v-5.075c-0.871 0.573-1.742 0.818-2.692 0.409-2.851-1.146-1.821-6.63-0.871-8.923 0.792-1.801 2.058-3.765 3.563-4.666zm-24.705 13.67v-3.683h3.721s-0.792-7.613-3.721-7.777v-2.374c10.769 0 10.769 13.834 10.769 13.834zm0 6.795c-1.029-0.491-2.059-1.309-2.613-2.62-0.871-2.128-1.029-4.175-1.029-4.175h3.643v-3.683h-3.801s0.634-7.777 3.643-7.777h0.158v-2.374h-0.158c-11.323 0-10.532 13.834-10.532 13.834s0.238 2.865 1.584 5.075c1.505 2.292 3.009 3.356 5.147 4.339 1.742 0.818 3.801 0.9 3.801 0.9h0.158v-3.519z"/>
	<path d="m266.67 58.285c-0.792-0.983-1.346-7.531-0.713-10.969 0.634-3.848 1.267-4.666 2.534-5.402 1.267-0.655 5.226-0.573 5.226-0.573v4.338h5.385v-5.485s0.158-1.719-1.108-2.374c-1.029-0.655-3.009-0.573-3.009-0.573s-6.81-0.082-9.264-0.082c-1.9 0-3.009 0.819-4.118 2.128-1.188 1.555-2.455 5.075-2.692 8.35-0.238 3.274 0.554 7.94 0.079 8.922-0.396 0.983-0.792 1.637-1.979 1.883-1.188 0.328-4.355 0.328-4.355 0.328v-21.446h-5.701v20.055s-0.237 0.818-1.267 1.064c-1.03 0.328-4.989 0.328-4.989 0.328v-16.781s-0.079-4.666-5.068-4.666c-3.722 0-4.751 1.556-5.701 2.374-0.634 0.491-2.455 2.62-2.455 2.62v3.193s2.296-2.456 3.326-3.193c1.108-0.819 1.979-1.146 3.088-1.146 1.346 0 1.901 1.31 1.901 2.046v18.418s3.326 0.245 5.147 0c1.821-0.328 3.564-0.491 4.118-0.655 0.713-0.164 2.138-0.573 2.138-0.573s0.317 0.818 1.346 1.064c0.95 0.328 2.771 0.164 2.771 0.164s4.276 0.164 5.701-0.164c1.425-0.246 3.326-2.701 3.326-2.701s0.079 1.391 0.871 1.882c1.346 0.9 2.693 0.983 2.693 0.983h24.31l1.9-2.865h-20.509c-2e-3 0-2.377 0.163-2.932-0.492z"/>
	<polygon points="40.358 0.249 33.469 12.773 53.582 49.608 13.593 49.608 6.625 61.642 56.353 61.642 63.48 49.527 43.525 12.773 50.097 0.249"/>
	<polygon points="55.245 0.249 48.593 12.773 68.785 49.527 62.134 61.642 72.111 61.642 78.762 49.608 58.57 12.773 98.638 12.773 105.53 0.249"/>
	<path d="m118.28 47.48c-2.534-1.965-20.588-15.144-20.588-15.144s-1.425-0.982-1.425-2.128c0-1.227 1.505-1.227 1.505-1.227h22.885v-3.929h-26.528s-6.494-0.164-8.473 6.058c-1.03 3.192 0.475 6.221 2.217 7.858 0.554 0.573 1.9 1.555 1.9 1.555l18.292 13.261s1.584 1.064 1.584 2.292c0 1.391-1.267 1.391-1.267 1.391h-22.33v4.175h28.665s4.91-0.491 6.335-5.157c1.346-4.748-0.317-6.958-2.772-9.005z"/>
	<rect x="247.11" y="29.063" width="5.78" height="5.975"/>
	<path d="m289 32.664c0-0.573-0.158-0.9-0.554-1.146s-0.95-0.409-1.584-0.409v0.737c0.317 0 0.554 0.082 0.713 0.164 0.237 0.163 0.396 0.409 0.396 0.737 0 0.327-0.158 0.573-0.317 0.655-0.237 0.164-0.475 0.246-0.792 0.246v0.9l0.95 2.128h1.188l-1.267-2.538c0.396-0.082 0.713-0.245 0.95-0.491 0.238-0.246 0.317-0.574 0.317-0.983zm-2.138-1.555h-0.08-2.058v5.566h1.029v-2.374h0.951l0.158 0.246v-0.9h-0.317-0.792v-1.883h0.792c0.079 0 0.237 0 0.317 0.082z"/>
	<path d="m291.06 32.091c-0.237-0.573-0.554-1.064-1.029-1.555s-0.95-0.818-1.584-1.064c-0.554-0.245-1.188-0.409-1.821-0.409v0.655c0.555 0 1.109 0.164 1.584 0.328 0.554 0.245 1.029 0.573 1.425 0.982 0.317 0.328 0.633 0.819 0.871 1.309 0.158 0.573 0.317 1.146 0.317 1.719s-0.158 1.064-0.317 1.637c-0.238 0.491-0.554 0.9-0.95 1.31s-0.871 0.737-1.346 0.983c-0.475 0.164-1.029 0.245-1.584 0.245v0.737c0.634 0 1.188-0.164 1.821-0.409 0.554-0.245 1.108-0.573 1.584-1.064 0.475-0.491 0.792-0.982 1.029-1.555 0.237-0.655 0.317-1.227 0.317-1.965 0-0.656-0.08-1.229-0.317-1.884zm-4.434-3.028c-0.633 0-1.267 0.082-1.821 0.328-0.475 0.245-1.029 0.573-1.425 1.064-0.475 0.491-0.792 1.064-1.109 1.637-0.237 0.655-0.317 1.228-0.317 1.882 0 0.655 0.079 1.31 0.317 1.883s0.634 1.146 1.03 1.637c0.475 0.409 1.029 0.819 1.505 1.064 0.554 0.245 1.188 0.409 1.821 0.409v-0.737c-0.554 0-1.108-0.082-1.584-0.328-0.475-0.164-0.871-0.491-1.267-0.9s-0.713-0.9-0.871-1.391c-0.237-0.491-0.317-1.064-0.317-1.638 0-0.491 0.079-1.064 0.317-1.637 0.158-0.491 0.475-0.982 0.95-1.391 0.317-0.41 0.713-0.655 1.188-0.9 0.475-0.246 1.029-0.328 1.584-0.328v-0.654z"/>
</g>
</svg>
