<?xml version="1.0" encoding="utf-8"?>
<!-- Generator: Adobe Illustrator 26.5.0, SVG Export Plug-In . SVG Version: 6.00 Build 0)  -->
<svg version="1.1" id="Layer_1" xmlns="http://www.w3.org/2000/svg" xmlns:xlink="http://www.w3.org/1999/xlink" x="0px" y="0px"
	 viewBox="0 0 233.4 106.2" style="enable-background:new 0 0 233.4 106.2;" xml:space="preserve">
<style type="text/css">
	.st0{fill:#010202;}
</style>
<g>
	<polygon class="st0" points="121.8,51.4 110.9,51.4 116.4,56.9 	"/>
	<polygon class="st0" points="86,19.2 74.8,8 55.9,8 67.1,19.2 	"/>
	<polygon class="st0" points="149.3,29 149.6,28.7 154.1,24.2 118.4,24.2 117.4,24.2 117.4,35.3 118.4,35.3 133.6,35.3 143,35.3 
		147.8,30.5 139.2,30.5 139.2,29 	"/>
	<polygon class="st0" points="129.1,44.1 132.9,40.3 116.4,40.3 99.9,40.3 103.6,44.1 109.3,44.1 109.3,46.1 105.6,46.1 109.4,49.9 
		123.3,49.9 127.1,46.1 123.4,46.1 123.4,44.1 	"/>
	<polygon class="st0" points="165.7,19.2 176.8,8 157.9,8 146.8,19.2 	"/>
	<path class="st0" d="M29.5,75.5H5.3l7.3,7.2h18.1c1.7,0,2.5,1,2.5,2.2c0,1.2-0.8,2.4-2.5,2.4H8.7V100h8.5v-5.9h12.3
		c7.9,0,12.3-3.7,12.3-9.3C41.8,79.4,37.3,75.5,29.5,75.5z"/>
	<path class="st0" d="M114.4,19.2h4H144L155.2,8h-20.8c-1.6,0-3.1,1-3.7,2.6c-1.6,4.1-6.3,4.7-14.4,4.7c-8,0-12.7-0.6-14.3-4.7
		C101.4,9,100,8,98.3,8H77.6l11.1,11.1H114.4z"/>
	<path class="st0" d="M74.1,92.2c3.8-0.9,6-4.2,6-7.8c0-7.3-7.5-8.9-13-8.9H42.5l7.4,7.2h18.3c2,0,3.1,0.7,3.1,2.2
		c0,1.6-1.1,2.3-3.1,2.3H45.9V100h8.5v-6.1h11.1l5.2,6.1h10.8l-1.8-2C76.4,94.1,74.8,92.7,74.1,92.2z"/>
	<path class="st0" d="M171.4,75.1c-12.2,0-18.3,3.9-18.3,12.7s6.1,12.7,18.3,12.7c12.2,0,18.4-3.9,18.4-12.7S183.6,75.1,171.4,75.1z
		 M171.4,93.3c-7.4,0-9.8-0.7-9.8-5.5c0-4.9,2.5-5.5,9.8-5.5c7.4,0,9.9,0.6,9.9,5.5C181.3,92.6,178.8,93.3,171.4,93.3z"/>
	<polygon class="st0" points="219.7,75.5 219.7,90 200.2,75.5 193.7,75.5 193.7,100 201.4,100 201.4,85.5 220.9,100 227.4,100 
		227.4,75.5 	"/>
	<path class="st0" d="M144.3,75.5l-7.8,7.6c-1,1.2-2.5,3.2-2.8,3.6c-0.3-0.4-1-1.9-2.8-3.6l-7.8-7.6h-10.9l17.2,16.6v7.9h4.3h4.3
		v-7.9l17.2-16.6H144.3z"/>
	<polygon class="st0" points="93.9,93 93.9,90.7 105.9,90.7 100.2,85.2 93.9,85.2 93.9,84.7 93.9,83.9 93.9,82.6 114.5,82.6 
		107.1,75.5 85.4,75.5 85.4,100 121.2,100 113.9,93 	"/>
	<polygon class="st0" points="84.9,30.5 89.7,35.3 99.2,35.3 114.4,35.3 115.3,35.3 115.3,24.2 114.4,24.2 78.6,24.2 83.1,28.7 
		83.4,29 93.5,29 93.5,30.5 	"/>
</g>
</svg>
