<?xml version="1.0" encoding="utf-8"?>
<!-- Generator: Adobe Illustrator 25.3.1, SVG Export Plug-In . SVG Version: 6.00 Build 0)  -->
<svg version="1.1" id="Layer_1" xmlns="http://www.w3.org/2000/svg" xmlns:xlink="http://www.w3.org/1999/xlink" x="0px" y="0px"
	 viewBox="0 0 244.8 50.1" style="enable-background:new 0 0 244.8 50.1;" xml:space="preserve">
<style type="text/css">
	.st0{fill:#010101;}
	.st1{fill:#E21D38;}
	.st2{fill:#FFFFFF;}
</style>
<g>
	<g>
		<g>
			<g>
				<g>
					<g>
						<path class="st0" d="M56.3,29.2v12.5c0,4.7,0.5,6.8,5.3,6.8v0.4H43.3v-0.4c5.4,0,4.8-5.8,4.8-10.5V24.7c0-4.7,1-13.9-4.5-13.9
							v-0.5h17.5v0.5c-4.5,0-4.8,2.7-4.8,7.4V28h0.8c7.3-7.3,8.1-8.6,8.6-9.4c3.7-5.9,0.2-7.7-1.8-7.7v-0.7h14.9v0.7
							c-2.5,0-7.3,4-10.2,6.3l-11,11c15,0.7,14.7,8.5,16.3,14.3c0.9,3.3,1.6,5.3,5.1,6v0.4H65.7C63.8,37.7,62.8,28.3,56.3,29.2z"/>
					</g>
				</g>
				<g>
					<path class="st0" d="M91.7,30.8c0,5.4,0.9,6.9,4,6.9v0.4H80.2v-0.4c3.2,0,3.4-3.7,3.4-6.9v-14c0-3.7-0.8-5.8-4-5.8v-0.7h12.1
						V30.8z"/>
				</g>
				<g>
					<path class="st0" d="M87.5,0c2.4,0,4.3,2,4.3,4.3c0,2.4-2,4.3-4.3,4.3c-2.4,0-4.3-2-4.3-4.3C83.1,1.9,85.1,0,87.5,0z"/>
				</g>
				<g>
					<path class="st0" d="M107.9,13.8c2.7-3.9,4.6-4,7.7-4c7.4,0,8.1,5.7,8.1,10.5v10.6c0,5.2,0.5,6.9,3.4,6.9v0.4h-14.8v-0.4
						c2.6,0,2.6-2.3,2.6-6.9V20.1c0-3.9,0.4-8.7-2.5-8.7c-3.4,0-3.5,2.7-4.4,4.3v15.2c0,4.5,0.3,6.9,2.9,6.9v0.4H96.4v-0.4
						c2.9,0,3.4-2.4,3.4-6.9V16.8c0-3.9-0.7-5.8-3.9-5.8v-0.7h12.2v3.5H107.9z"/>
				</g>
				<g>
					<path class="st0" d="M184.8,10.3h5.7l-1,1.9h-4.7v16.7c0,8.4,4.8,7.7,6.9,5.9l0.1,0.5c-4.4,3.5-7.3,2.8-8.4,2.8
						c-4.2,0-6.9-3-6.9-7V12.3h-4.7v-0.2c3.7-1.3,9.7-6.2,12.5-10.2h0.5L184.8,10.3L184.8,10.3z"/>
				</g>
				<g>
					<path class="st0" d="M188.8,24.5c0-6.7,6-14.7,13.3-14.7c6.7,0,13.1,7.1,13.1,14.2c0,8.4-7.2,14.6-13.1,14.6
						C194.9,38.6,188.8,32.2,188.8,24.5z M206.8,23.7c0-8.4-0.3-13.4-4.7-13.4c-4.8,0-4.5,6.4-4.5,13.4c0,8.4,0,14.3,4.5,14.3
						C207.2,38.1,206.8,32.2,206.8,23.7z"/>
				</g>
				<g>
					<path class="st0" d="M225.6,13.8c2.7-3.9,4.6-4,7.7-4c7.4,0,8.1,5.7,8.1,10.5v10.6c0,5.2,0.5,6.9,3.4,6.9v0.4H230v-0.4
						c2.6,0,2.6-2.3,2.6-6.9V20.1c0-3.9,0.4-8.7-2.5-8.7c-3.4,0-3.5,2.7-4.4,4.3v15.2c0,4.5,0.3,6.9,2.9,6.9v0.4h-14.5v-0.4
						c2.9,0,3.4-2.4,3.4-6.9V16.8c0-3.9-0.7-5.8-3.9-5.8v-0.7h12.2v3.5H225.6z"/>
				</g>
				<g>
					<path class="st0" d="M141.3,33.8c-0.8,1.1-2,4.7-6.5,4.7c-5.2,0-9.1-4.7-9.1-14.2c0-7.7,4.9-14.5,10.6-14.5
						c4,0,5.6,3.6,5.6,3.6v-2.9h12.4v0.6c0,0-4.1-0.8-4.1,5v21.4c-0.4,5.8-2.9,9.8-13,12.6l0.1-0.7
						C143.1,45.3,141.8,39.2,141.3,33.8z M142,23.1c0-6.3-0.5-12.4-4.5-12.4c-2.8,0-3.5,4.9-3.5,13.9c0,7.5,0.6,12.5,3.5,12.5
						c2.5,0,4.6-5.7,4.6-11.7v-2.3H142z"/>
				</g>
				<g>
					<path class="st0" d="M151.6,29.2h4c-0.5,8.7,5.5,8.7,7,8.7c2.6,0,5-2.1,5-4.4c0-7.1-14.7-4-14.7-14.8c0-4.9,3.7-8.9,9.3-8.9
						c9,0,10,5.4,10,7.3h-3.4c0.3-1.3-0.2-6.9-6-6.9c-4.7,0-4.5,3.8-4.5,4.1c0,6.9,15.9,4.4,15.9,14.5c0,5.1-4.3,9.3-10.1,9.7
						C154.2,39,151.6,31.8,151.6,29.2z"/>
				</g>
				<g>
					<path class="st0" d="M238.5,8c0-1.6,1.3-2.9,2.9-2.9s2.9,1.3,2.9,2.9c0,1.6-1.3,2.9-2.9,2.9S238.5,9.6,238.5,8z M243.8,8
						c0-1.4-1-2.5-2.4-2.5S239,6.6,239,8s1,2.5,2.4,2.5C242.7,10.5,243.8,9.4,243.8,8z M242.8,9.6h-0.5l-0.9-1.5h-0.7v1.5h-0.4V6.4
						h1.4c0.9,0,1.1,0.3,1.1,0.8c0,0.6-0.4,0.9-1,0.9L242.8,9.6z M241.3,7.8c0.5,0,1.1,0.1,1.1-0.6c0-0.5-0.4-0.6-0.8-0.6h-0.9v1.1
						L241.3,7.8L241.3,7.8z"/>
				</g>
				<g>
					<path class="st0" d="M81.1,40.3h7v1h-2.9v7.6H84v-7.6h-2.9V40.3z"/>
				</g>
				<g>
					<path class="st0" d="M97,48.9v-8.7h6.3v1.1h-5.2v2.6h4.8v1h-4.8v2.9h5.3v1L97,48.9L97,48.9z"/>
				</g>
				<g>
					<path class="st0" d="M116.3,40.1c1.1,0,1.9,0.3,2.6,0.9c0.6,0.6,0.9,1.2,1,2h-1.1c-0.1-0.6-0.4-1-0.8-1.3
						c-0.4-0.3-0.9-0.5-1.6-0.5c-0.9,0-1.5,0.3-2.1,0.9c-0.5,0.6-0.8,1.5-0.8,2.8c0,1,0.2,1.8,0.7,2.5c0.5,0.6,1.2,0.9,2.1,0.9
						c0.9,0,1.5-0.3,2-1c0.2-0.3,0.4-0.8,0.5-1.4h1.1c-0.1,0.9-0.4,1.7-1,2.3c-0.7,0.7-1.6,1.1-2.8,1.1c-1,0-1.9-0.3-2.5-0.9
						c-0.9-0.8-1.3-2.1-1.3-3.7c0-1.3,0.3-2.3,1-3.1C114,40.5,115,40.1,116.3,40.1z"/>
				</g>
				<g>
					<path class="st0" d="M129.1,48.9v-8.7h1.2v3.6h4.5v-3.6h1.2v8.7h-1.2v-4.1h-4.5v4.1H129.1z"/>
				</g>
				<g>
					<path class="st0" d="M150.6,48.9v-8.7h1.4l4.4,7v-7h1.1v8.7h-1.3l-4.4-7v7H150.6z"/>
				</g>
				<g>
					<path class="st0" d="M169.5,47.2c-0.5-0.7-0.7-1.5-0.7-2.4c0-1.2,0.3-2.1,0.8-2.7c0.6-0.6,1.3-0.9,2.2-0.9s1.7,0.3,2.2,0.9
						s0.8,1.4,0.8,2.5c0,1-0.2,1.8-0.7,2.6c-0.5,0.7-1.2,1.1-2.2,1.1C170.7,48.1,169.9,47.8,169.5,47.2z M168.4,41.7
						c-0.6,0.8-0.9,1.8-0.9,3c0,1.3,0.3,2.4,1,3.2c0.8,0.9,1.8,1.3,3.1,1.3c1.4,0,2.5-0.5,3.3-1.5c0.7-0.9,1-1.9,1-3.2
						c0-1.2-0.3-2.2-0.9-2.9c-0.7-1-1.9-1.5-3.4-1.5C170.2,40.1,169.1,40.6,168.4,41.7z"/>
				</g>
				<g>
					<path class="st0" d="M186,48.9v-8.7h1.2v7.6h4.4v1L186,48.9L186,48.9z"/>
				</g>
				<g>
					<path class="st0" d="M202.7,47.2c-0.5-0.7-0.7-1.5-0.7-2.4c0-1.2,0.3-2.1,0.8-2.7c0.6-0.6,1.3-0.9,2.2-0.9s1.6,0.3,2.2,0.9
						c0.5,0.6,0.8,1.4,0.8,2.5c0,1-0.2,1.8-0.7,2.6c-0.5,0.7-1.2,1.1-2.2,1.1C203.9,48.1,203.2,47.8,202.7,47.2z M201.6,41.7
						c-0.6,0.8-0.9,1.8-0.9,3c0,1.3,0.3,2.4,1,3.2c0.8,0.9,1.8,1.3,3.1,1.3c1.4,0,2.5-0.5,3.3-1.5c0.7-0.9,1-1.9,1-3.2
						c0-1.2-0.3-2.2-0.9-2.9c-0.7-1-1.9-1.5-3.4-1.5C203.5,40.1,202.4,40.6,201.6,41.7z"/>
				</g>
				<g>
					<path class="st0" d="M223,40.1c0.8,0,1.5,0.2,2.1,0.5c0.9,0.5,1.4,1.2,1.6,2.4h-1.2c-0.1-0.6-0.4-1.1-0.9-1.4
						c-0.4-0.3-1-0.4-1.7-0.4c-0.8,0-1.5,0.3-2,0.9c-0.6,0.6-0.8,1.5-0.8,2.7c0,1,0.2,1.9,0.7,2.5s1.2,1,2.2,1
						c0.8,0,1.4-0.2,1.9-0.7s0.8-1.2,0.8-2.2H223v-1h3.8V49H226l-0.3-1.1c-0.4,0.4-0.7,0.7-1.1,0.9c-0.5,0.3-1.2,0.4-2,0.4
						c-1,0-1.9-0.3-2.6-1c-0.8-0.8-1.2-2-1.2-3.4s0.4-2.6,1.2-3.5C220.8,40.5,221.8,40.1,223,40.1z"/>
				</g>
				<g>
					<path class="st0" d="M239.7,45.5l-3.3-5.2h1.4l2.5,4.2l2.5-4.2h1.4l-3.3,5.2V49h-1.2V45.5z"/>
				</g>
			</g>
		</g>
	</g>
	<g>
		<g>
			<path class="st0" d="M1.9,7.8C1.7,7.1,1.5,5.5,1.5,5.5C1.2,4.2,1.8,3.8,1.8,3.8s6-3.1,17.1-3.4c3.3-0.1,9.1-0.2,14.9,1.8
				c0.4,0.2,0.5,0.5,0.6,1c0.2,0.7,0.3,1.4,0.4,2C35,6.7,35.1,7.5,35,8.4c0,0.6-0.7,1.6-0.7,1.9c-0.1,1,0.3,5,0.1,6.9
				c-0.1,1.9-0.9,8.4-2.4,12.7c-1.6,4.5-4.5,3.8-5.9,3.8L33,48.8H0l4.9-26.5c0,0,0.1-0.7-0.5-1C3,20.4,2,19.1,2,19.1
				S1.3,18.3,0.6,14c0,0-0.6-4.1,0.1-5C1,8.6,1.8,8.2,2,8L1.9,7.8z"/>
		</g>
		<g>
			<path class="st1" d="M28.4,14.7l-2.1-0.5c0,0-0.5,0-0.7,0.3c-0.1,0.3-0.6,1.9-0.6,1.9s0,0.1,0.1,0.2c0.1,0.1,5.2,3.8,5.2,3.8
				S26,20,24.7,20.3c-1.3,0.3-4,1.7-5.7,2s-8,1-8.4,1L8.1,12.5c0,0-0.3-2.7-3.1-2.6c-2.1,0.1-2.4,0.6-2.5,0.8c-0.2,0.4,0,0.8,0,0.8
				l6.8,11.6c0,0-4.6-2.2-6.4-4.7c-1-1.3-1.9-7.8-1.3-8.9c0.6-1,4.3-1.8,5.9-1.6C8.3,8,9,8.8,9.4,9.3c0.1,0.2,0.2,0.1,0.3,0.2
				c0,0-0.4-2.5-2-2.6C5.4,6.7,2.9,7.6,2.9,7.6s-0.2,0-0.3-0.3C2.5,6.9,2.2,4.8,2.2,4.8s0.1-0.4,0.5-0.6c0,0,6.5-3,16.2-3
				C20,1.2,29.2,1.1,33.5,3c0.4,0.3,0.1,1.8-0.1,2.6c-0.1,0.6-0.8,0.8-0.8,0.8c-0.7,0.2-0.9,0.7-0.9,0.7s0.9,8.7,1,9
				c0.1,0.4-0.3,0.4-1.1,0.5c-0.4,0-5,0.1-5,0.1s-1-0.1-0.9-0.7c0-0.4,0.2-1.2,0.4-1.2c0.3,0,0.9,0,0.9,0S29,14.9,28.4,14.7z"/>
		</g>
		<g>
			<path class="st1" d="M21.5,22.3c0,0,4.4-0.8,9.1,0.4c0,0,1,0.8,0.9,1.5C31.5,24.2,24.3,24.6,21.5,22.3z"/>
		</g>
		<g>
			<path class="st1" d="M21.7,30.1c0,0,1.3-5.4,9.6-4.7c0,0,0.6,0.5-1,2.1C28.3,29.4,24.8,30.9,21.7,30.1z"/>
		</g>
		<g>
			<path class="st0" d="M20,4.1c0,0,0.9-0.2,4.6,0.6c1.9,0.4,2.9,0.9,3.4,1c0.2,0.1,0.2,0.6,0.1,0.6c-0.3,0.1-4.9-1.5-7.6-1.5
				c0,0-3.2,1.3-6.9,4.5c0,0-0.8,0.1-1.2,0C12.4,9.5,15.8,5.8,20,4.1z"/>
		</g>
		<g>
			<path class="st0" d="M16.7,9.4c0,0,3-1.5,4.5-1.9S24,7,24.7,7.2s1.4,2,1.5,2.3c0,0-2.3,1.1-4.4,0.9C19.9,10.1,17.9,9.9,16.7,9.4z
				"/>
		</g>
		<g>
			<path class="st1" d="M33.9,6.9C34.3,7,34.3,7,34.5,7.2c0.3,0.2,0.2,0.8,0,0.9c-0.2,0.2-0.3-0.2-1.6-0.1C32.9,8,33.5,6.8,33.9,6.9
				z"/>
		</g>
		<g>
			<polygon class="st1" points="6,22.4 9.1,24.5 14.2,47.8 1.2,47.8 			"/>
		</g>
		<g>
			<path class="st1" d="M13.5,33.8c0,0,6.3,3.9,7.3,5.4l0.7,8.7h-4.6L13.5,33.8z"/>
		</g>
		<g>
			<path class="st1" d="M24.2,41.8c0,0,3.7,3.4,4.8,6.1h-6.2L24.2,41.8z"/>
		</g>
		<g>
			<path class="st2" d="M29.4,7.6c0,0,0.4-0.1,0.5,0.3c0.5,2.1,1.1,6.7,1.1,7c0,0.7-0.7,0.1-0.7,0.1L29.4,7.6z"/>
		</g>
		<g>
			<path class="st2" d="M16.1,1.5c0,0,0.1,0,0.4,0c0.1,0,2,3.3,2,3.3s-0.7,0.4-0.8,0.5L16.1,1.5z"/>
		</g>
		<g>
			<path class="st2" d="M8.1,12.5c0,0-0.7-2.1,0.7-2.4c1.4-0.3,3.3-0.6,5.5-0.4c0,0-3.6,0.7-4.7,1.1C8.5,11.2,8.1,12.5,8.1,12.5z"/>
		</g>
	</g>
</g>
</svg>
